<mxfile host="app.diagrams.net" modified="2024-06-14T18:27:05.160Z" agent="Mozilla/5.0 (Windows NT 10.0; Win64; x64) AppleWebKit/537.36 (KHTML, like Gecko) Chrome/126.0.0.0 Safari/537.36 Edg/126.0.0.0" version="24.5.4" etag="OBLL2wiQ7rQ94K5wIKY9" type="github">
  <diagram name="Page-1" id="P3TorM5RGi-4TKIKlA45">
    <mxGraphModel>
      <root>
        <mxCell id="0" />
        <mxCell id="1" parent="0" />
      </root>
    </mxGraphModel>
  </diagram>
</mxfile>
